<svg width="243" height="93" viewBox="0 0 243 93" fill="none" xmlns="http://www.w3.org/2000/svg">
<path d="M0 49.8332V23.8219L16.6966 23.2422C17.7273 23.2422 18.6936 23.3066 19.5954 23.4354C20.4972 23.5643 21.4087 23.8059 22.3299 24.1601C23.2509 24.5144 24.0369 24.9717 24.6875 25.5322C25.3381 26.0926 25.8695 26.8366 26.2818 27.7641C26.6941 28.6918 26.9001 29.7611 26.9001 30.9722C26.9001 32.5825 26.5459 33.887 25.8373 34.8854C25.1287 35.8838 24.0659 36.7696 22.6487 37.5425C24.3107 38.0064 25.5764 38.8084 26.4461 39.9485C27.3157 41.0887 27.7505 42.5283 27.7505 44.2675C27.7505 45.5559 27.5057 46.7122 27.0161 47.7364C26.5266 48.7606 25.8953 49.5948 25.1223 50.239C24.3493 50.8831 23.441 51.4178 22.3975 51.8429C21.3539 52.268 20.3201 52.5676 19.2958 52.7415C18.2716 52.9155 17.2249 53.0024 16.1556 53.0024C15.5371 53.0024 14.6064 52.9895 13.3631 52.9638C12.1199 52.938 11.1826 52.9251 10.5513 52.9251C6.96978 52.9251 3.68459 52.9766 0.695628 53.0797C0.270508 52.3969 0.0385894 51.3147 0 49.8332ZM11.0925 30.2764C11.0925 30.8561 11.1117 31.7194 11.1504 32.866C11.189 34.0126 11.2084 34.8757 11.2084 35.4555C11.2084 35.7003 11.363 35.8419 11.6722 35.8807C11.8525 35.8548 12.165 35.813 12.6094 35.755C13.0539 35.697 13.405 35.6487 13.6627 35.61C13.9203 35.5714 14.2327 35.4781 14.5999 35.3298C14.9671 35.1817 15.2538 35.0046 15.4598 34.7984C15.666 34.5923 15.8464 34.2928 16.001 33.8999C16.1556 33.5068 16.2329 33.0463 16.2329 32.5182C16.2329 30.5599 14.8801 29.5808 12.1746 29.5808C11.6335 29.6709 11.3179 29.7611 11.2277 29.8513C11.1376 29.9543 11.0925 30.0961 11.0925 30.2764ZM11.4403 45.0019C11.4403 45.9553 11.4919 46.432 11.5949 46.432H12.2132C12.7158 46.432 13.1506 46.4159 13.5177 46.3837C13.8849 46.3515 14.281 46.2709 14.7061 46.1421C15.1314 46.0132 15.4727 45.8361 15.7305 45.6107C15.9881 45.3852 16.207 45.0663 16.3875 44.6541C16.5678 44.2418 16.658 43.7522 16.658 43.1854C16.658 42.8633 16.6258 42.5671 16.5613 42.2964C16.4969 42.0259 16.3939 41.794 16.2521 41.6008C16.1105 41.4075 15.9719 41.24 15.8367 41.0984C15.7014 40.9566 15.5082 40.8374 15.2569 40.7409C15.0057 40.6442 14.7996 40.5669 14.6385 40.509C14.4775 40.4509 14.2359 40.4026 13.9138 40.364C13.5917 40.3253 13.36 40.2996 13.2182 40.2867C13.0765 40.2739 12.8317 40.2577 12.4839 40.2383C12.136 40.2191 11.917 40.2094 11.8268 40.2094V40.9438C11.814 41.0854 11.7462 41.5621 11.6238 42.3737C11.5014 43.1854 11.4403 43.8296 11.4403 44.3063V45.0019Z" fill="#231F20"/>
<path d="M60.6292 52.386C60.3457 52.6694 59.7499 52.8369 58.8416 52.8885C57.9334 52.94 56.8157 52.927 55.4888 52.8497C54.1619 52.7724 53.4532 52.7338 53.3631 52.7338C52.487 52.7338 51.8557 52.721 51.4693 52.6952H49.5367C49.2534 52.6049 49.0149 52.1831 48.8217 51.4294C48.6284 50.6757 48.4384 49.5936 48.2517 48.1828C48.0649 46.7721 47.965 46.0217 47.9521 45.9315C47.9006 44.656 47.6944 43.8155 47.3337 43.4096C46.973 43.0038 46.316 42.8008 45.3626 42.8008H44.5123V52.2314C44.4865 52.386 44.3512 52.5148 44.1065 52.6179C43.8617 52.721 43.5105 52.7886 43.0532 52.8208C42.5959 52.853 42.1901 52.8723 41.8358 52.8788C41.4815 52.8853 41.0145 52.882 40.4347 52.8691C39.855 52.8562 39.5007 52.8497 39.3719 52.8497H36.589C35.0173 52.8497 33.8321 52.8627 33.0333 52.8885C32.853 52.8111 32.6725 52.721 32.4922 52.6179V23.7852C32.4922 23.4245 33.0076 23.2441 34.0382 23.2441H50.8895C53.8139 23.3214 56.0395 24.0171 57.5663 25.3312C59.0929 26.6452 59.8562 28.5005 59.8562 30.8968C59.8562 34.0145 58.2844 36.2949 55.141 37.7377C55.7207 37.9182 56.2425 38.1693 56.7062 38.4914C57.17 38.8135 57.5566 39.1581 57.8658 39.5253C58.1749 39.8925 58.4455 40.3338 58.6775 40.8491C58.9092 41.3644 59.0897 41.8475 59.2185 42.2984C59.3474 42.7494 59.4601 43.284 59.5567 43.9023C59.6533 44.5208 59.7209 45.0554 59.7596 45.5063C59.7982 45.9573 59.8466 46.4951 59.9045 47.12C59.9625 47.7449 60.0108 48.2376 60.0495 48.5983V50.2989C60.0881 50.5051 60.2073 50.7949 60.407 51.1685C60.6067 51.5422 60.7322 51.8192 60.7838 51.9995C60.7838 52.2571 60.7322 52.386 60.6292 52.386ZM44.3963 31.4378C44.3963 32.2109 44.4028 32.7841 44.4157 33.1578C44.4285 33.5313 44.4994 34.0209 44.6282 34.6265C44.7571 35.2319 44.9503 35.6636 45.208 35.9212C45.7491 35.9212 46.2612 35.8633 46.7443 35.7472C47.2275 35.6313 47.6944 35.4445 48.1454 35.1869C48.5963 34.9292 48.9538 34.5459 49.2178 34.0371C49.482 33.5282 49.614 32.9194 49.614 32.2109C49.614 31.8115 49.5432 31.4604 49.4015 31.1576C49.2597 30.8549 49.0537 30.6133 48.783 30.433C48.5125 30.2526 48.2452 30.1077 47.9811 29.9982C47.717 29.8887 47.395 29.8113 47.0148 29.7663C46.6348 29.7212 46.3352 29.6921 46.1163 29.6793C45.8972 29.6664 45.6331 29.6599 45.3239 29.6599H44.8602C44.6668 29.7501 44.5413 29.9306 44.4833 30.2011C44.4254 30.4716 44.3963 30.8838 44.3963 31.4378Z" fill="#231F20"/>
<path d="M64.5137 51.9678V51.2334C64.5137 49.0304 64.5395 45.7774 64.591 41.4744C64.6426 37.1715 64.6683 33.9184 64.6683 31.7153V23.7148H87.1624V30.6525C87.1624 30.704 87.1559 30.7975 87.1431 30.9327C87.1302 31.068 87.1077 31.1613 87.0755 31.2129C87.0432 31.2645 86.9981 31.3385 86.9402 31.4351C86.8823 31.5318 86.8146 31.5994 86.7373 31.638C86.66 31.6767 86.5569 31.7121 86.4281 31.7444C86.2992 31.7766 86.1576 31.7926 86.003 31.7926H85.4618C82.1251 31.7926 79.0847 31.7412 76.3405 31.638C76.3148 31.8442 76.2729 32.163 76.2149 32.5946C76.157 33.0262 76.1119 33.4063 76.0796 33.7348C76.0474 34.0633 76.0313 34.3822 76.0313 34.6914H85.2299C85.6164 34.6914 85.8741 34.7429 86.003 34.846C86.1317 34.9491 86.1962 35.1165 86.1962 35.3485C86.1962 35.4129 86.1897 35.5159 86.1768 35.6577C86.164 35.7993 86.1576 35.9025 86.1576 35.9668C86.1576 36.5852 86.1768 37.4999 86.2155 38.711C86.2541 39.922 86.2735 40.8367 86.2735 41.4551C86.2348 41.7128 86.1317 41.8415 85.9643 41.8415C85.887 41.8415 85.8225 41.8158 85.7711 41.7642C81.6999 41.9704 78.6853 42.0735 76.727 42.0735H76.2246V44.8562C77.3712 44.8562 79.0299 44.8048 81.2007 44.7016C83.3715 44.5986 84.998 44.547 86.0803 44.547C86.9305 44.547 87.4201 44.7275 87.549 45.0881V46.5568C87.549 47.1753 87.5618 48.09 87.5876 49.301C87.6133 50.5119 87.6263 51.4267 87.6263 52.0451C87.6263 52.6892 87.3685 53.0113 86.8532 53.0113C86.1833 53.0113 85.1526 53.0048 83.7612 52.992C82.3698 52.9791 81.3134 52.9727 80.5919 52.9727C78.7368 52.9727 76.0828 53.021 72.6302 53.1177C69.1775 53.2142 66.6781 53.269 65.1321 53.2818L64.591 52.6635C64.5395 52.3027 64.5137 52.0709 64.5137 51.9678Z" fill="#231F20"/>
<path d="M89.6523 52.4613C90.4511 49.5111 91.3336 46.5156 92.2999 43.4752C93.2661 40.4348 94.4675 36.7985 95.9039 32.5664C97.3404 28.3343 98.3229 25.4065 98.851 23.7833C99.0056 23.5256 99.1087 23.3709 99.1602 23.3195H102.407C103.167 23.3195 104.288 23.3066 105.769 23.2808C107.251 23.255 108.372 23.2422 109.132 23.2422H112.378C112.572 23.2422 112.733 23.2454 112.861 23.2519C112.99 23.2582 113.145 23.2744 113.325 23.3001C113.506 23.3259 113.651 23.3646 113.76 23.4162C113.87 23.4676 113.963 23.5449 114.04 23.6479C114.118 23.7511 114.156 23.8735 114.156 24.0151L123.065 52.2488C123.065 52.5064 122.972 52.6836 122.785 52.7801C122.598 52.8768 122.247 52.9251 121.732 52.9251H119.954C119.438 52.9251 118.672 52.9315 117.654 52.9444C116.636 52.9573 115.87 52.9638 115.354 52.9638C115.2 52.9638 114.887 52.9734 114.417 52.9928C113.947 53.012 113.551 53.0185 113.229 53.012C112.907 53.0057 112.549 52.9863 112.156 52.9541C111.763 52.9219 111.448 52.8511 111.209 52.7415C110.971 52.632 110.82 52.4871 110.755 52.3067V51.0312C110.626 50.3871 110.401 49.7945 110.079 49.2535C109.757 48.7123 109.415 48.4418 109.055 48.4418H102.407L101.402 52.5387C101.26 52.8479 100.539 53.0024 99.2375 53.0024H97.6915C97.1375 53.0024 96.313 53.0217 95.218 53.0604C94.1229 53.099 93.2983 53.1184 92.7443 53.1184H92.2033L90.1935 53.157C90.0904 53.0539 89.9101 52.822 89.6523 52.4613ZM103.064 40.7312L103.605 41.6394H104.88C105.911 41.6394 106.855 41.5783 107.711 41.4559C108.568 41.3335 108.997 41.137 108.997 40.8664L106.504 29.7353C106.272 29.7353 105.959 30.1734 105.566 31.0495C105.173 31.9254 104.855 32.9174 104.61 34.0254L103.064 40.7312Z" fill="#231F20"/>
<path d="M127.339 53.157C127.056 53.157 126.84 53.1281 126.692 53.0701C126.544 53.012 126.447 52.9444 126.402 52.8671C126.357 52.7898 126.283 52.6417 126.18 52.4226V24.9428C126.18 24.6593 126.183 24.4532 126.189 24.3243C126.196 24.1956 126.218 24.0442 126.257 23.8702C126.296 23.6963 126.357 23.574 126.441 23.503C126.524 23.4322 126.644 23.3711 126.798 23.3195C126.953 23.2679 127.146 23.2422 127.378 23.2422H135.301C137.156 23.2422 138.084 23.4741 138.084 23.9378V23.9765C138.032 28.7691 138.007 32.3377 138.007 34.6825L143.437 23.3774L147.437 23.3968C152.899 23.3968 155.631 23.5256 155.631 23.7833C155.631 23.8348 155.605 23.8606 155.553 23.8606C153.054 28.3697 150.516 32.8531 147.94 37.3106V37.8518L148.732 38.3542L156.81 52.2488C156.81 52.4549 156.661 52.6804 156.365 52.9252H143.959L138.432 42.1418C138.354 42.8504 138.296 43.8811 138.258 45.2338C138.219 46.5866 138.187 47.4756 138.161 47.9007V52.4614C138.071 52.9252 137.298 53.157 135.842 53.157H127.339Z" fill="#231F20"/>
<path d="M159.621 52.9638C159.673 49.2148 159.763 46.4706 159.892 44.7314C159.892 39.3205 159.969 33.8322 160.124 28.2666C160.072 27.1844 160.046 26.3856 160.046 25.8703V25.2906C159.995 24.7237 159.969 24.2599 159.969 23.8992C159.969 23.6544 160.085 23.4354 160.317 23.2422C162.43 23.3968 165.65 23.4741 169.979 23.4741C171.01 23.4741 171.718 23.4483 172.105 23.3968V52.9638H159.621Z" fill="#231F20"/>
<path d="M177.889 52.4633V43.7285C177.863 40.5335 177.966 34.4397 178.198 25.4472V23.8625C178.198 23.5791 178.249 23.4116 178.352 23.36H191.648C191.777 23.36 192.038 23.8496 192.431 24.8287C192.823 25.8079 193.3 27.0672 193.861 28.6068C194.421 30.1463 194.817 31.2059 195.049 31.7856L197.755 38.8586V31.3605C197.755 30.7163 197.771 29.5343 197.803 27.8145C197.835 26.0945 197.845 24.7514 197.832 23.7852C197.832 23.4245 198.863 23.2441 200.924 23.2441C201.568 23.2441 202.45 23.257 203.571 23.2827C204.692 23.3086 205.381 23.3214 205.639 23.3214H207.108C207.314 23.3214 207.417 23.36 207.417 23.4373C207.494 27.0189 207.533 32.1464 207.533 38.82V52.2314C207.443 52.5664 207.03 52.7338 206.296 52.7338H205.794C205.124 52.7338 204.138 52.7467 202.837 52.7725C201.536 52.7983 200.55 52.8111 199.88 52.8111H194.199C194.018 52.7467 193.645 51.935 193.078 50.3762C192.472 48.6886 191.571 46.2471 190.372 43.0521C189.174 39.8571 188.504 38.0727 188.363 37.6991C188.363 38.4592 188.356 39.5929 188.343 41.1003C188.33 42.6076 188.324 43.7414 188.324 44.5014C188.324 45.0683 188.337 45.9187 188.363 47.0523C188.388 48.186 188.401 49.0364 188.401 49.6032V52.0382C188.401 52.6308 188.144 52.927 187.628 52.927H178.739L177.889 52.4633Z" fill="#231F20"/>
<path d="M212.512 38.0729C212.512 36.295 212.711 34.6653 213.111 33.1837C213.51 31.7021 214.042 30.446 214.705 29.4154C215.369 28.3847 216.167 27.47 217.101 26.6712C218.035 25.8724 218.998 25.2316 219.99 24.7484C220.982 24.2653 222.049 23.8691 223.189 23.5599C224.329 23.2508 225.395 23.0414 226.387 22.9319C227.379 22.8223 228.384 22.7676 229.402 22.7676C230.149 22.7676 230.88 22.7998 231.595 22.8642C232.31 22.9287 233.115 23.0414 234.011 23.2024C234.906 23.3635 235.743 23.6115 236.523 23.9464C237.302 24.2814 238.049 24.6904 238.765 25.1736C239.48 25.6567 240.101 26.2815 240.629 27.0481C241.158 27.8146 241.538 28.6811 241.77 29.6473C241.834 30.0209 241.963 31.0773 242.156 32.8165C242.105 33.203 241.692 33.3962 240.919 33.3962C239.811 33.3962 238.201 33.3705 236.088 33.319C233.975 33.2675 232.391 33.2417 231.334 33.2417C231.18 33.1902 231.057 33.0871 230.967 32.9325C230.877 32.7779 230.816 32.6104 230.783 32.4301C230.751 32.2496 230.7 32.0564 230.629 31.8503C230.558 31.6442 230.468 31.4606 230.358 31.2995C230.249 31.1385 230.055 31.0032 229.778 30.8938C229.501 30.7842 229.157 30.7295 228.745 30.7295C228.203 30.7295 227.72 30.8228 227.295 31.0097C226.87 31.1965 226.522 31.4251 226.252 31.6957C225.981 31.9662 225.749 32.3334 225.556 32.7973C225.363 33.261 225.218 33.6829 225.121 34.0629C225.025 34.4431 224.95 34.9262 224.899 35.5124C224.847 36.0985 224.818 36.5591 224.812 36.8941C224.806 37.229 224.802 37.6735 224.802 38.2275L224.841 39.3483V39.928C224.841 40.3404 224.847 40.6817 224.86 40.9523C224.873 41.2229 224.909 41.5707 224.967 41.9958C225.025 42.421 225.105 42.7785 225.208 43.0684C225.311 43.3583 225.463 43.6675 225.662 43.9959C225.862 44.3245 226.107 44.5885 226.397 44.7882C226.686 44.9879 227.05 45.1554 227.488 45.2907C227.927 45.426 228.422 45.4937 228.977 45.4937C230.406 45.4937 231.579 45.3519 232.494 45.0684V42.7109H231.643V42.7495H230.252L229.054 42.7882L228.358 42.0151V36.6815C228.358 36.3466 228.59 35.9858 229.054 35.5993H230.445C231.411 35.5993 232.584 35.6122 233.962 35.638C235.341 35.6637 236.397 35.6766 237.132 35.6766H238.678C239.425 35.6766 240.008 35.683 240.426 35.6959C240.845 35.7088 241.312 35.77 241.828 35.8796C242.343 35.989 242.684 36.1533 242.852 36.3723C242.852 38.0601 242.813 40.5207 242.736 43.7543C242.659 46.9881 242.62 49.3329 242.62 50.7887L242.659 51.1751V51.6002C242.22 52.1156 240.79 52.5665 238.368 52.953C235.946 53.3395 233.911 53.5327 232.262 53.5327H231.759C231.399 53.5327 230.864 53.5585 230.155 53.61C229.447 53.6616 228.912 53.6873 228.551 53.6873C223.359 53.6873 219.388 52.2992 216.638 49.5229C213.887 46.7465 212.512 42.9298 212.512 38.0729Z" fill="#231F20"/>
<path d="M0 89.6768V63.6657L16.6966 63.0859C17.7273 63.0859 18.6936 63.1503 19.5954 63.2791C20.4972 63.408 21.4087 63.6495 22.3299 64.0038C23.2509 64.3581 24.0369 64.8155 24.6875 65.3758C25.3381 65.9363 25.8695 66.6804 26.2818 67.6079C26.6941 68.5354 26.9001 69.6049 26.9001 70.8158C26.9001 72.4262 26.5459 73.7306 25.8373 74.7291C25.1287 75.7276 24.0659 76.6132 22.6487 77.3863C24.3107 77.8501 25.5764 78.6521 26.4461 79.7922C27.3157 80.9324 27.7505 82.3721 27.7505 84.1113C27.7505 85.3996 27.5057 86.5559 27.0161 87.5801C26.5266 88.6044 25.8953 89.4385 25.1223 90.0827C24.3493 90.7269 23.441 91.2615 22.3975 91.6867C21.3539 92.1118 20.3201 92.4113 19.2958 92.5853C18.2716 92.7591 17.2249 92.8461 16.1556 92.8461C15.5371 92.8461 14.6064 92.8333 13.3631 92.8075C12.1199 92.7817 11.1826 92.7688 10.5513 92.7688C6.96978 92.7688 3.68459 92.8204 0.695628 92.9234C0.270508 92.2407 0.0385894 91.1585 0 89.6768ZM11.0925 70.1202C11.0925 70.6999 11.1117 71.5631 11.1504 72.7097C11.189 73.8563 11.2084 74.7194 11.2084 75.2992C11.2084 75.5439 11.363 75.6857 11.6722 75.7243C11.8525 75.6986 12.165 75.6567 12.6094 75.5987C13.0539 75.5408 13.405 75.4925 13.6627 75.4538C13.9203 75.4152 14.2327 75.3217 14.5999 75.1736C14.9671 75.0255 15.2538 74.8483 15.4598 74.6421C15.666 74.4361 15.8464 74.1365 16.001 73.7435C16.1556 73.3506 16.2329 72.8901 16.2329 72.3618C16.2329 70.4035 14.8801 69.4244 12.1746 69.4244C11.6335 69.5146 11.3179 69.6049 11.2277 69.695C11.1376 69.7981 11.0925 69.9398 11.0925 70.1202ZM11.4403 84.8456C11.4403 85.799 11.4919 86.2757 11.5949 86.2757H12.2132C12.7158 86.2757 13.1506 86.2596 13.5177 86.2273C13.8849 86.1951 14.281 86.1146 14.7061 85.9859C15.1314 85.857 15.4727 85.6798 15.7305 85.4544C15.9881 85.229 16.207 84.9101 16.3875 84.4978C16.5678 84.0856 16.658 83.596 16.658 83.0291C16.658 82.7071 16.6258 82.4107 16.5613 82.1402C16.4969 81.8697 16.3939 81.6378 16.2521 81.4446C16.1105 81.2512 15.9719 81.0837 15.8367 80.942C15.7014 80.8004 15.5082 80.6812 15.2569 80.5845C15.0057 80.488 14.7996 80.4107 14.6385 80.3526C14.4775 80.2946 14.2359 80.2464 13.9138 80.2077C13.5917 80.1691 13.36 80.1433 13.2182 80.1304C13.0765 80.1175 12.8317 80.1014 12.4839 80.0821C12.136 80.0627 11.917 80.0532 11.8268 80.0532V80.7875C11.814 80.9291 11.7462 81.4058 11.6238 82.2175C11.5014 83.0291 11.4403 83.6733 11.4403 84.15V84.8456Z" fill="#231F20"/>
<path d="M60.6292 92.2298C60.3457 92.5131 59.7499 92.6806 58.8416 92.7322C57.9334 92.7836 56.8157 92.7708 55.4888 92.6935C54.1619 92.6162 53.4532 92.5776 53.3631 92.5776C52.487 92.5776 51.8557 92.5647 51.4693 92.5389H49.5367C49.2534 92.4487 49.0149 92.0267 48.8217 91.2732C48.6284 90.5195 48.4384 89.4373 48.2517 88.0266C48.0649 86.6158 47.965 85.8654 47.9521 85.7751C47.9006 84.4998 47.6944 83.6591 47.3337 83.2533C46.973 82.8474 46.316 82.6446 45.3626 82.6446H44.5123V92.0751C44.4865 92.2298 44.3512 92.3585 44.1065 92.4615C43.8617 92.5647 43.5105 92.6323 43.0532 92.6646C42.5959 92.6967 42.1901 92.716 41.8358 92.7225C41.4815 92.7289 41.0145 92.7257 40.4347 92.7128C39.855 92.7 39.5007 92.6935 39.3719 92.6935H36.589C35.0173 92.6935 33.8321 92.7063 33.0333 92.7322C32.853 92.6549 32.6725 92.5647 32.4922 92.4615V63.6289C32.4922 63.2682 33.0076 63.0879 34.0382 63.0879H50.8895C53.8139 63.1652 56.0395 63.8608 57.5663 65.1749C59.0929 66.489 59.8562 68.3442 59.8562 70.7404C59.8562 73.8583 58.2844 76.1385 55.141 77.5815C55.7207 77.7618 56.2425 78.0131 56.7062 78.3352C57.17 78.6572 57.5566 79.0019 57.8658 79.369C58.1749 79.7362 58.4455 80.1774 58.6775 80.6928C58.9092 81.2081 59.0897 81.6912 59.2185 82.1421C59.3474 82.593 59.4601 83.1278 59.5567 83.7461C59.6533 84.3645 59.7209 84.8992 59.7596 85.35C59.7982 85.801 59.8466 86.3388 59.9045 86.9636C59.9625 87.5885 60.0108 88.0813 60.0495 88.442V90.1426C60.0881 90.3487 60.2073 90.6387 60.407 91.0122C60.6067 91.3859 60.7322 91.6629 60.7838 91.8432C60.7838 92.1009 60.7322 92.2298 60.6292 92.2298ZM44.3963 71.2816C44.3963 72.0545 44.4028 72.6279 44.4157 73.0015C44.4285 73.3751 44.4994 73.8646 44.6282 74.4701C44.7571 75.0757 44.9503 75.5073 45.208 75.7649C45.7491 75.7649 46.2612 75.707 46.7443 75.591C47.2275 75.4751 47.6944 75.2883 48.1454 75.0306C48.5963 74.773 48.9538 74.3896 49.2178 73.8808C49.482 73.3719 49.614 72.7631 49.614 72.0545C49.614 71.6552 49.5432 71.3041 49.4015 71.0014C49.2597 70.6987 49.0537 70.4571 48.783 70.2767C48.5125 70.0963 48.2452 69.9513 47.9811 69.8419C47.717 69.7324 47.395 69.6551 47.0148 69.61C46.6348 69.5649 46.3352 69.5359 46.1163 69.523C45.8972 69.5102 45.6331 69.5037 45.3239 69.5037H44.8602C44.6668 69.5938 44.5413 69.7742 44.4833 70.0448C44.4254 70.3153 44.3963 70.7276 44.3963 71.2816Z" fill="#231F20"/>
<path d="M61.666 92.3051C62.4648 89.3547 63.3473 86.3594 64.3135 83.319C65.2798 80.2786 66.4812 76.6423 67.9176 72.4102C69.3541 68.178 70.3364 65.2503 70.8647 63.627C71.0193 63.3693 71.1223 63.2147 71.1739 63.1632H74.4205C75.1806 63.1632 76.3015 63.1503 77.783 63.1245C79.2646 63.0988 80.3854 63.0859 81.1455 63.0859H84.3921C84.5853 63.0859 84.7463 63.0891 84.8752 63.0956C85.0041 63.102 85.1587 63.1182 85.339 63.1439C85.5194 63.1696 85.6643 63.2083 85.7738 63.2598C85.8833 63.3114 85.9767 63.3887 86.054 63.4917C86.1313 63.5947 86.1699 63.7171 86.1699 63.8589L95.0787 92.0924C95.0787 92.3502 94.9853 92.5273 94.7985 92.6239C94.6117 92.7205 94.2607 92.7688 93.7453 92.7688H91.9673C91.4521 92.7688 90.6855 92.7753 89.6678 92.7882C88.6499 92.801 87.8834 92.8075 87.3681 92.8075C87.2135 92.8075 86.9011 92.8172 86.4309 92.8364C85.9606 92.8558 85.5644 92.8623 85.2424 92.8558C84.9203 92.8493 84.5628 92.8301 84.1699 92.7978C83.7768 92.7656 83.4613 92.6948 83.223 92.5853C82.9846 92.4758 82.8333 92.3308 82.7688 92.1505V90.875C82.6399 90.2308 82.4145 89.6382 82.0924 89.0971C81.7703 88.5561 81.4289 88.2854 81.0682 88.2854H74.4205L73.4155 92.3824C73.2738 92.6915 72.5524 92.8461 71.2512 92.8461H69.7052C69.1512 92.8461 68.3267 92.8655 67.2316 92.9041C66.1365 92.9428 65.312 92.9621 64.758 92.9621H64.217L62.2072 93.0007C62.1041 92.8977 61.9237 92.6658 61.666 92.3051ZM75.0775 80.5748L75.6186 81.4831H76.894C77.9246 81.4831 78.8683 81.422 79.7251 81.2996C80.5818 81.1772 81.0103 80.9807 81.0103 80.7102L78.5174 69.579C78.2854 69.579 77.973 70.0171 77.58 70.8931C77.1871 71.7692 76.8682 72.7612 76.6234 73.8692L75.0775 80.5748Z" fill="#231F20"/>
<path d="M97.9599 92.3071V83.5722C97.9342 80.3771 98.0372 74.2834 98.2691 65.2909V63.7062C98.2691 63.4228 98.3207 63.2554 98.4237 63.2038H111.719C111.848 63.2038 112.109 63.6933 112.502 64.6725C112.895 65.6516 113.371 66.9109 113.932 68.4505C114.492 69.99 114.888 71.0497 115.12 71.6294L117.826 78.7023V71.2043C117.826 70.5601 117.842 69.3781 117.874 67.6581C117.906 65.9383 117.916 64.5952 117.903 63.6289C117.903 63.2682 118.934 63.0879 120.995 63.0879C121.639 63.0879 122.522 63.1008 123.643 63.1265C124.763 63.1522 125.453 63.1652 125.71 63.1652H127.179C127.385 63.1652 127.488 63.2038 127.488 63.2811C127.566 66.8626 127.604 71.9902 127.604 78.6636V92.0751C127.514 92.4101 127.102 92.5776 126.367 92.5776H125.865C125.195 92.5776 124.209 92.5904 122.908 92.6162C121.607 92.642 120.622 92.6549 119.952 92.6549H114.27C114.09 92.5904 113.716 91.7788 113.149 90.2199C112.544 88.5322 111.642 86.0909 110.444 82.8958C109.246 79.7008 108.576 77.9164 108.434 77.5429C108.434 78.3029 108.428 79.4367 108.415 80.944C108.402 82.4514 108.395 83.5851 108.395 84.3452C108.395 84.912 108.408 85.7623 108.434 86.896C108.46 88.0298 108.473 88.8801 108.473 89.4469V91.8818C108.473 92.4745 108.215 92.7708 107.7 92.7708H98.8103L97.9599 92.3071Z" fill="#231F20"/>
<path d="M133.769 63.5428C133.769 63.401 133.849 63.2755 134.01 63.1659C134.171 63.0564 134.406 62.9727 134.715 62.9148C135.025 62.8567 135.334 62.8084 135.643 62.7698C135.952 62.7311 136.323 62.7054 136.754 62.6925C137.186 62.6797 137.543 62.6732 137.827 62.6732C138.11 62.6732 138.435 62.6764 138.803 62.6829C139.17 62.6892 139.386 62.6925 139.45 62.6925H141.614C142.04 62.6925 142.635 62.6797 143.402 62.6538C144.168 62.6281 144.732 62.6152 145.093 62.6152C151.238 62.6152 155.631 63.6717 158.272 65.7845L158.968 66.4028C159.187 66.609 159.432 66.8764 159.702 67.2048C159.973 67.5334 160.305 68.0293 160.698 68.6929C161.091 69.3564 161.442 70.0746 161.751 70.8476C162.06 71.6206 162.324 72.574 162.543 73.7077C162.762 74.8413 162.872 76.0138 162.872 77.2248C162.872 79.1057 162.614 80.8643 162.099 82.5005C161.583 84.1366 160.878 85.5537 159.983 86.7519C159.087 87.9501 158.037 88.9839 156.833 89.8536C155.628 90.7232 154.324 91.3737 152.919 91.8053C151.515 92.2369 150.066 92.4527 148.571 92.4527H147.953C147.399 92.4527 146.575 92.4398 145.479 92.4141C144.384 92.3882 143.56 92.3754 143.006 92.3754C139.772 92.3754 136.848 92.427 134.232 92.53C133.923 91.9117 133.769 91.3448 133.769 90.8294V63.5428ZM145.132 85.7277C145.904 85.7277 146.6 85.6407 147.219 85.4667C147.837 85.2929 148.359 85.0642 148.784 84.7808C149.209 84.4973 149.583 84.1366 149.905 83.6985C150.227 83.2605 150.481 82.8097 150.668 82.3458C150.855 81.882 151.003 81.3505 151.113 80.7516C151.222 80.1525 151.296 79.5856 151.335 79.051C151.373 78.5163 151.393 77.9204 151.393 77.2634V76.0652C151.393 73.6947 150.923 71.9458 149.982 70.8186C149.042 69.6913 147.399 69.0954 145.054 69.031L144.436 70.1906V71.1181C144.436 71.3113 144.429 71.8138 144.417 72.6254C144.249 81.2572 144.487 85.6247 145.132 85.7277Z" fill="#231F20"/>
<path d="M0.237305 4.50111H3.69863V5.92828C4.2236 4.82371 5.11485 4.27148 6.37251 4.27148C7.1052 4.27148 7.78058 4.45462 8.39851 4.82103C9.01633 5.18744 9.50309 5.69318 9.85842 6.3385C10.2139 6.98369 10.3917 7.70542 10.3917 8.50383C10.3917 9.30223 10.2084 10.024 9.84211 10.6692C9.47571 11.3145 8.9836 11.8202 8.36566 12.1866C7.74772 12.553 7.0889 12.7362 6.38894 12.7362C5.14223 12.7362 4.24538 12.1838 3.69863 11.0793V14.7375L0.237305 15.3937V4.50111ZM5.339 10.1443C5.78743 10.1443 6.17026 9.98016 6.48738 9.65208C6.80451 9.32401 6.96307 8.9413 6.96307 8.50383C6.96307 8.04445 6.80183 7.65626 6.47911 7.33914C6.15651 7.0219 5.77647 6.86334 5.339 6.86334C4.8907 6.86334 4.50786 7.01922 4.19074 7.33087C3.87362 7.64264 3.71506 8.01172 3.71506 8.43824V8.50383C3.71506 8.96321 3.8763 9.35139 4.19889 9.66851C4.52162 9.98563 4.90165 10.1443 5.339 10.1443Z" fill="#231F20"/>
<path d="M16.8211 12.7362C15.9025 12.7362 15.085 12.5557 14.3687 12.1948C13.6524 11.834 13.0947 11.3336 12.6954 10.6939C12.2962 10.054 12.0967 9.31854 12.0967 8.4874C12.0967 7.65627 12.2991 6.92078 12.7037 6.28106C13.1083 5.64121 13.6688 5.14643 14.3852 4.79645C15.1014 4.44647 15.9189 4.27148 16.8376 4.27148C17.7672 4.27148 18.5901 4.44915 19.3064 4.8046C20.0228 5.16006 20.5778 5.65497 20.9715 6.28921C21.3653 6.92358 21.562 7.65627 21.562 8.4874C21.562 9.32949 21.3625 10.0705 20.9633 10.7102C20.5641 11.35 20.0064 11.8476 19.2901 12.2031C18.5737 12.5585 17.7507 12.7362 16.8211 12.7362ZM16.854 10.2755C17.3024 10.2755 17.6715 10.1087 17.9612 9.77511C18.2511 9.44156 18.396 9.01237 18.396 8.4874C18.396 7.96243 18.2511 7.53324 17.9612 7.19969C17.6715 6.86614 17.3024 6.6993 16.854 6.6993C16.4056 6.6993 16.0365 6.86614 15.7466 7.19969C15.4569 7.53324 15.312 7.96243 15.312 8.4874C15.312 9.01237 15.4569 9.44156 15.7466 9.77511C16.0365 10.1087 16.4056 10.2755 16.854 10.2755Z" fill="#231F20"/>
<path d="M27.2293 12.8742C26.4857 12.8742 25.8104 12.6773 25.2035 12.2836C24.5965 11.89 24.118 11.3677 23.768 10.717C23.4182 10.0663 23.2432 9.37451 23.2432 8.64182C23.2432 7.86532 23.4263 7.15174 23.7927 6.50107C24.159 5.85027 24.6511 5.33906 25.269 4.96717C25.887 4.59542 26.5459 4.40947 27.2458 4.40947C27.8801 4.40947 28.4187 4.54065 28.8617 4.80314C29.3045 5.06562 29.6628 5.48667 29.9362 6.06627V1.93237L33.3975 1.42383V12.7429H29.9362V11.2172C29.4222 12.3218 28.5198 12.8742 27.2293 12.8742ZM28.3121 10.2823C28.7714 10.2823 29.1569 10.1182 29.4687 9.79008C29.7803 9.46201 29.9362 9.0793 29.9362 8.64182V8.57623C29.9362 8.14971 29.772 7.78063 29.444 7.46886C29.1159 7.15721 28.7386 7.00133 28.3121 7.00133C27.8527 7.00133 27.4672 7.16269 27.1556 7.48529C26.8439 7.80789 26.6881 8.1934 26.6881 8.64182C26.6881 9.1012 26.8493 9.48939 27.172 9.80651C27.4946 10.1236 27.8747 10.2823 28.3121 10.2823Z" fill="#231F20"/>
<path d="M39.8018 12.7362C38.927 12.7362 38.1532 12.5585 37.4806 12.2031C36.808 11.8476 36.2831 11.3472 35.9058 10.702C35.5285 10.0568 35.3398 9.32401 35.3398 8.50383C35.3398 7.71638 35.5367 7.00012 35.9304 6.3548C36.3241 5.70961 36.86 5.20107 37.538 4.82918C38.2161 4.45743 38.9707 4.27148 39.8018 4.27148C40.8627 4.27148 41.6993 4.49016 42.3118 4.92763L42 7.10939C41.3767 6.92358 40.8627 6.83061 40.458 6.83061C39.9331 6.83061 39.5176 6.98089 39.2113 7.28171C38.9051 7.5824 38.752 7.98982 38.752 8.50383C38.752 9.01785 38.9051 9.42794 39.2113 9.73411C39.5176 10.0404 39.9222 10.1935 40.4252 10.1935C40.8627 10.1935 41.3767 10.1005 41.9673 9.91457L42.2789 12.2112C41.907 12.3972 41.5298 12.5311 41.147 12.6131C40.7643 12.6952 40.3158 12.7362 39.8018 12.7362Z" fill="#231F20"/>
<path d="M47.9134 12.7362C47.2026 12.7362 46.5382 12.5476 45.9202 12.1702C45.3024 11.793 44.8075 11.279 44.4356 10.6282C44.0639 9.97748 43.8779 9.25295 43.8779 8.45467C43.8779 7.66722 44.0639 6.95363 44.4356 6.31379C44.8075 5.67407 45.3051 5.17369 45.9285 4.81288C46.5518 4.45195 47.2136 4.27148 47.9134 4.27148C48.4822 4.27148 49.0098 4.43004 49.4964 4.74716C49.9831 5.06441 50.3522 5.54009 50.6037 6.17433V4.27148H54.0487V12.6049H50.6037V11.0793C50.0569 12.1838 49.1601 12.7362 47.9134 12.7362ZM48.9798 10.1443C49.4171 10.1443 49.7918 9.98844 50.1034 9.67679C50.4151 9.36502 50.5819 8.99594 50.6037 8.56942V8.43824C50.5819 8.00077 50.4096 7.62888 50.087 7.32272C49.7644 7.01655 49.3953 6.86334 48.9798 6.86334C48.5204 6.86334 48.1294 7.0247 47.8068 7.3473C47.4842 7.66989 47.3228 8.0554 47.3228 8.50383C47.3228 8.96321 47.4869 9.3514 47.8149 9.66852C48.1431 9.98564 48.5313 10.1443 48.9798 10.1443Z" fill="#231F20"/>
<path d="M59.4262 12.7362C58.2778 12.7362 57.2717 12.5667 56.4078 12.2276L56.7851 10.2755C57.5725 10.5599 58.3381 10.702 59.0817 10.702C59.6286 10.702 59.9019 10.5489 59.9019 10.2426C59.9019 10.0896 59.8227 9.96386 59.6641 9.86541C59.5054 9.76696 59.2074 9.67947 58.7701 9.60293C57.8623 9.42794 57.2089 9.13272 56.8096 8.71703C56.4105 8.30146 56.2109 7.7109 56.2109 6.94536C56.2546 6.08149 56.5991 5.41974 57.2444 4.96049C57.8896 4.50111 58.7701 4.27148 59.8855 4.27148C60.4542 4.27148 60.9436 4.30702 61.3538 4.37808C61.7639 4.44915 62.1384 4.5667 62.4774 4.73086L62.1329 6.68287C61.8158 6.56265 61.4685 6.46968 61.0913 6.40409C60.7139 6.3385 60.3995 6.30564 60.1479 6.30564C59.7762 6.30564 59.5192 6.34385 59.3769 6.42052C59.2348 6.49706 59.1637 6.60085 59.1637 6.73216C59.1637 6.97274 59.4372 7.14225 59.9839 7.2407C60.9792 7.41569 61.7229 7.72186 62.215 8.15933C62.7071 8.5968 62.9531 9.19283 62.9531 9.94743C62.9531 10.8114 62.6496 11.4921 62.0426 11.9897C61.4358 12.4873 60.5635 12.7362 59.4262 12.7362Z" fill="#231F20"/>
<path d="M68.6148 12.8742C67.6524 12.8742 66.9033 12.5981 66.3674 12.0457C65.8316 11.4935 65.5636 10.7306 65.5636 9.75735V6.55851H64.5137V4.52435H65.8097L67.3353 1.42383H68.9921V4.52435H70.8951V6.55851H68.9921V9.34726C68.9921 9.62057 69.0796 9.83389 69.2546 9.98697C69.4296 10.1401 69.6756 10.2166 69.9927 10.2166C70.2881 10.2166 70.556 10.151 70.7966 10.0198L70.9278 12.3165C70.6545 12.4805 70.3017 12.6144 69.8697 12.7183C69.4377 12.8222 69.0195 12.8742 68.6148 12.8742Z" fill="#231F20"/>
<path d="M79.5864 12.7362C78.438 12.7362 77.4319 12.5667 76.5679 12.2276L76.9452 10.2755C77.7327 10.5599 78.4982 10.702 79.2419 10.702C79.7886 10.702 80.062 10.5489 80.062 10.2426C80.062 10.0896 79.9827 9.96386 79.8241 9.86541C79.6656 9.76696 79.3676 9.67947 78.9301 9.60293C78.0224 9.42794 77.3689 9.13272 76.9698 8.71703C76.5707 8.30146 76.3711 7.7109 76.3711 6.94536C76.4148 6.08149 76.7593 5.41974 77.4045 4.96049C78.0498 4.50111 78.9301 4.27148 80.0456 4.27148C80.6144 4.27148 81.1037 4.30702 81.5138 4.37808C81.924 4.44915 82.2986 4.5667 82.6376 4.73086L82.2931 6.68287C81.9758 6.56265 81.6287 6.46968 81.2513 6.40409C80.8741 6.3385 80.5596 6.30564 80.3081 6.30564C79.9363 6.30564 79.6793 6.34385 79.5371 6.42052C79.3949 6.49706 79.3239 6.60085 79.3239 6.73216C79.3239 6.97274 79.5973 7.14225 80.1441 7.2407C81.1392 7.41569 81.883 7.72186 82.3751 8.15933C82.8672 8.5968 83.1133 9.19283 83.1133 9.94743C83.1133 10.8114 82.8098 11.4921 82.2028 11.9897C81.5958 12.4873 80.7237 12.7362 79.5864 12.7362Z" fill="#231F20"/>
<path d="M89.3327 12.7362C88.4249 12.7362 87.6183 12.553 86.913 12.1866C86.2076 11.8202 85.6581 11.3172 85.2644 10.6774C84.8706 10.0376 84.6738 9.31306 84.6738 8.50383C84.6738 7.6727 84.8761 6.9344 85.2808 6.28921C85.6854 5.64402 86.2322 5.14643 86.9212 4.79645C87.6102 4.44647 88.3757 4.27148 89.2178 4.27148C90.0272 4.27148 90.7189 4.44915 91.293 4.8046C91.8671 5.16006 92.2964 5.64121 92.5807 6.2482C92.8651 6.85519 93.0072 7.53591 93.0072 8.29051C93.0072 8.4874 92.9963 8.62953 92.9745 8.71703L88.0531 9.35687C88.1843 9.73958 88.3976 10.0158 88.6929 10.1853C88.9882 10.3548 89.3764 10.4395 89.8577 10.4395C90.6013 10.4395 91.4051 10.2481 92.2691 9.86541L92.6792 12.0636C91.6621 12.512 90.5465 12.7362 89.3327 12.7362ZM90.4645 7.28986C90.2895 6.60085 89.874 6.25648 89.2178 6.25648C88.8242 6.25648 88.5124 6.40409 88.2828 6.6993C88.0531 6.99464 87.9328 7.37735 87.9218 7.84768L90.4645 7.28986Z" fill="#231F20"/>
<path d="M95.1094 4.50111H98.5708V6.17434C98.8224 5.52914 99.1641 5.05066 99.5961 4.73901C100.028 4.42737 100.534 4.27148 101.113 4.27148L101.589 6.94536C100.55 6.94536 99.7875 7.05756 99.3007 7.28171C98.8141 7.50586 98.5708 7.85864 98.5708 8.3398V12.6049H95.1094V4.50111Z" fill="#231F20"/>
<path d="M106.192 12.9103C105.274 12.9103 104.557 12.6149 104.043 12.0244C103.529 11.4338 103.272 10.63 103.272 9.61296V4.56043H106.75V9.46536C106.75 9.71689 106.818 9.91098 106.955 10.0476C107.092 10.1844 107.269 10.2527 107.488 10.2527C107.707 10.2527 107.931 10.1871 108.161 10.0559L108.341 12.3361C108.101 12.5221 107.786 12.6642 107.398 12.7626C107.01 12.861 106.608 12.9103 106.192 12.9103ZM105.011 3.33002C104.497 3.33002 104.062 3.16879 103.707 2.84606C103.351 2.52347 103.174 2.127 103.174 1.6568C103.174 1.18646 103.36 0.792802 103.732 0.475681C104.103 0.15856 104.53 0 105.011 0C105.514 0 105.949 0.164037 106.315 0.49211C106.682 0.820184 106.865 1.20837 106.865 1.6568C106.865 2.13795 106.679 2.53722 106.307 2.85434C105.935 3.17146 105.503 3.33002 105.011 3.33002Z" fill="#231F20"/>
<path d="M114.236 12.7362C113.328 12.7362 112.522 12.553 111.816 12.1866C111.111 11.8202 110.561 11.3172 110.168 10.6774C109.774 10.0376 109.577 9.31306 109.577 8.50383C109.577 7.6727 109.779 6.9344 110.184 6.28921C110.589 5.64402 111.135 5.14643 111.824 4.79645C112.514 4.44647 113.279 4.27148 114.121 4.27148C114.93 4.27148 115.622 4.44915 116.196 4.8046C116.77 5.16006 117.2 5.64121 117.484 6.2482C117.768 6.85519 117.911 7.53591 117.911 8.29051C117.911 8.4874 117.9 8.62953 117.878 8.71703L112.956 9.35687C113.088 9.73958 113.301 10.0158 113.596 10.1853C113.892 10.3548 114.28 10.4395 114.761 10.4395C115.505 10.4395 116.308 10.2481 117.172 9.86541L117.582 12.0636C116.565 12.512 115.45 12.7362 114.236 12.7362ZM115.368 7.28986C115.193 6.60085 114.777 6.25648 114.121 6.25648C113.727 6.25648 113.416 6.40409 113.186 6.6993C112.956 6.99464 112.836 7.37735 112.825 7.84768L115.368 7.28986Z" fill="#231F20"/>
<path d="M122.753 12.7362C121.605 12.7362 120.599 12.5667 119.735 12.2276L120.112 10.2755C120.9 10.5599 121.665 10.702 122.409 10.702C122.956 10.702 123.229 10.5489 123.229 10.2426C123.229 10.0896 123.15 9.96386 122.991 9.86541C122.833 9.76696 122.535 9.67947 122.097 9.60293C121.189 9.42794 120.536 9.13272 120.137 8.71703C119.738 8.30146 119.538 7.7109 119.538 6.94536C119.582 6.08149 119.926 5.41974 120.572 4.96049C121.217 4.50111 122.097 4.27148 123.213 4.27148C123.781 4.27148 124.271 4.30702 124.681 4.37808C125.091 4.44915 125.466 4.5667 125.805 4.73086L125.46 6.68287C125.143 6.56265 124.796 6.46968 124.418 6.40409C124.041 6.3385 123.727 6.30564 123.475 6.30564C123.103 6.30564 122.846 6.34385 122.704 6.42052C122.562 6.49706 122.491 6.60085 122.491 6.73216C122.491 6.97274 122.764 7.14225 123.311 7.2407C124.306 7.41569 125.05 7.72186 125.542 8.15933C126.034 8.5968 126.28 9.19283 126.28 9.94743C126.28 10.8114 125.977 11.4921 125.37 11.9897C124.763 12.4873 123.891 12.7362 122.753 12.7362Z" fill="#231F20"/>
</svg>
