<svg width="142" height="106" viewBox="0 0 142 106" fill="none" xmlns="http://www.w3.org/2000/svg">
<g clip-path="url(#clip0)">
<path d="M5.16915 1.81543H26.974C27.6039 7.70662 29.9381 13.2088 30.9014 19.0259H21.972C22.676 24.7318 21.1569 29.9005 19.6192 35.3471H27.5668C26.0106 41.0345 25.4734 45.9809 27.1222 51.7239H19.1746C21.0457 57.5965 24.0469 63.4507 23.1577 69.7865C22.287 76.0297 18.9338 81.5874 18.0816 87.8491H5.18767C6.26217 80.0312 11.4123 72.8247 10.2823 64.7289C9.31892 57.9115 5.1321 51.8165 5.09505 44.8323C5.05799 38.163 8.26295 31.9939 9.13366 25.4543C10.2267 17.2844 6.05839 9.78151 5.16915 1.81543Z" fill="black"/>
<path d="M46.5553 1.81735C47.2593 8.20874 50.0937 14.1555 50.6495 20.5654C51.1126 25.9564 49.2601 31.0881 47.8706 36.2197C46.37 41.8145 46.0922 46.835 47.8892 52.3927C49.8529 58.4877 52.5206 64.0639 51.5202 70.6221H59.3381C58.1154 76.4947 55.2068 81.8672 54.3917 87.8325H33.6984C34.7729 80.0146 39.9231 72.8081 38.793 64.7123C37.8297 57.8948 33.6428 51.7999 33.6058 44.8157C33.5687 38.1464 36.7737 31.9773 37.6444 25.4377C38.7374 17.2678 34.5506 9.76491 33.6799 1.79883H46.5553V1.81735Z" fill="black"/>
<path d="M87.2208 52.1869C89.1845 58.1337 92.2042 64.3213 90.5739 70.5459C89.6291 74.177 87.5728 77.419 85.2941 80.4016C83.3489 82.9397 81.1443 85.4036 78.4766 87.2562C76.2535 88.7938 73.6229 89.7016 70.9737 89.646C68.3801 89.5904 66.0643 88.9235 63.9895 87.3859C61.8405 85.7926 60.9327 83.2176 60.6548 80.6054C60.3214 77.3819 61.0624 74.0103 61.47 70.7682C62.3036 64.1731 59.4692 58.3004 57.4313 52.1684C55.8937 47.0367 55.9122 42.6461 57.1535 37.4404C58.7467 31.3454 60.9512 25.4542 60.4325 19.0814C60.1732 15.8208 59.6915 12.4306 60.1917 9.22565C60.6178 6.59499 61.6182 4.13106 63.7486 2.37112C65.7679 0.703797 68.4171 -0.0742849 70.9551 -0.0187076C73.6414 0.0368697 75.9571 0.796426 78.2173 2.24144C80.8294 3.92728 82.9228 6.48384 84.7013 9.02187C86.8132 12.023 88.6102 15.2836 89.4439 18.859C90.9074 25.1022 88.4991 31.3639 86.9058 37.4589C85.7017 42.6647 85.6831 47.0738 87.2208 52.1869ZM77.2169 23.9166C77.328 21.36 77.1242 18.6182 76.1053 16.2284C75.7533 15.4133 75.0864 14.5611 74.1231 14.5611C73.4561 14.5611 73.03 15.0427 72.9189 15.9135C72.6039 18.4515 73.3264 21.2489 73.1968 23.9166C72.5298 30.7526 69.2693 37.1255 69.0099 43.9985C68.7506 51.0198 72.7336 57.3371 74.086 64.0804C74.5491 67.2854 74.049 70.1939 73.7525 73.3248C73.6414 74.4734 74.0119 75.1033 74.8456 75.0847C75.9201 75.0662 76.7537 73.9917 77.1428 73.0654C78.421 70.0272 78.5507 66.6926 77.9949 63.4506C76.5129 56.8554 72.6966 50.6122 73.0671 43.6836C73.4005 36.9217 76.5499 30.66 77.2169 23.9166Z" fill="black"/>
<path d="M139.204 1.81543C139.556 9.78151 143.205 17.4326 141.593 25.4543C140.278 32.0124 136.684 38.0704 136.258 44.8323C135.832 51.7238 139.611 57.9485 140.111 64.7289C140.723 72.9729 135.091 80.0312 133.479 87.8491H117.417C117.399 80.624 121.493 73.9362 120.604 66.6556C119.585 58.2264 113.508 51.4274 113.527 42.7388C112.545 48.5374 114.657 53.8914 116.009 59.4491C117.028 63.5803 117.251 67.5448 115.991 71.6761C114.305 77.2153 111.193 82.1802 109.933 87.8676H93.9636C94.5379 79.8645 99.299 72.3615 97.3724 64.2287C95.8162 57.5965 91.4627 51.7609 90.981 44.8508C90.4993 38.0889 93.4634 31.6604 93.7599 24.9541C94.1304 16.8583 89.5545 9.6333 88.1836 1.83396H100.688C101.485 7.02117 103.579 11.8008 104.894 16.8398C106.228 21.99 105.783 26.6955 104.616 31.8457C103.504 36.5698 102.059 41.4606 102.708 46.3514C103.375 51.4274 105.931 56.0959 107.617 60.857C106.58 56.874 104.912 53.0392 104.245 48.945C103.449 44.0542 104.764 39.4413 106.32 34.8283C108.025 29.8079 109.896 24.88 109.599 19.489C109.266 13.5052 107.135 7.81778 106.932 1.81543H120.289C120.77 4.89071 121.715 7.85483 122.697 10.8004C123.568 13.4126 124.476 16.0247 125.013 18.7109C125.809 22.6013 125.457 26.325 124.679 30.1969C123.494 35.5323 121.623 41.0345 122.401 46.5737C123.216 52.2981 126.273 57.4298 127.866 62.9505C126.791 57.8188 124.457 52.9651 123.864 47.7223C123.253 42.2942 125.328 37.0885 127.032 32.0495C128.699 27.1031 129.755 22.3976 129.07 17.1733C128.385 12.0231 126.81 7.07675 126.662 1.83396H139.204V1.81543Z" fill="black"/>
<path d="M60.208 95.8135V103.594H61.1899V97.1288H61.2084L63.6353 103.594H64.5245L66.9514 97.1288H66.9699V103.594H67.9518V95.8135H66.5438L64.0799 102.353L61.6345 95.8135H60.208Z" fill="black"/>
<path d="M73.0097 100.687C72.8986 100.78 72.7504 100.835 72.5466 100.872C72.3613 100.909 72.1575 100.946 71.9538 100.965C71.75 100.983 71.5462 101.02 71.3239 101.058C71.1201 101.095 70.9163 101.15 70.7496 101.224C70.5828 101.298 70.4532 101.41 70.342 101.539C70.2309 101.669 70.1753 101.854 70.1753 102.095C70.1753 102.243 70.2123 102.373 70.2679 102.484C70.3235 102.595 70.4161 102.669 70.5087 102.743C70.6014 102.817 70.7125 102.855 70.8607 102.892C70.9904 102.929 71.1201 102.929 71.2683 102.929C71.5647 102.929 71.8426 102.892 72.0464 102.799C72.2687 102.706 72.4354 102.614 72.5836 102.484C72.7318 102.354 72.8245 102.225 72.88 102.076C72.9541 101.928 72.9727 101.78 72.9727 101.65V100.687H73.0097ZM74.5103 103.577C74.3436 103.67 74.1213 103.725 73.8434 103.725C73.6025 103.725 73.4173 103.651 73.2691 103.521C73.1209 103.392 73.0653 103.169 73.0653 102.855C72.8059 103.151 72.5095 103.373 72.1761 103.521C71.8426 103.651 71.4721 103.725 71.083 103.725C70.8237 103.725 70.5828 103.688 70.3605 103.633C70.1382 103.577 69.9344 103.484 69.7677 103.355C69.601 103.225 69.4713 103.077 69.3787 102.873C69.286 102.669 69.2305 102.428 69.2305 102.151C69.2305 101.836 69.286 101.576 69.3972 101.372C69.5084 101.169 69.6566 101.002 69.8233 100.872C70.0085 100.743 70.2123 100.65 70.4346 100.576C70.657 100.502 70.8978 100.465 71.1386 100.409C71.398 100.354 71.6388 100.317 71.8611 100.298C72.0834 100.279 72.2872 100.242 72.4725 100.187C72.6392 100.131 72.7874 100.076 72.88 99.983C72.9727 99.8904 73.0283 99.7607 73.0283 99.594C73.0283 99.3902 72.9912 99.2235 72.9171 99.1123C72.843 98.9826 72.7504 98.89 72.6207 98.8344C72.5095 98.7603 72.3613 98.7233 72.2131 98.7048C72.0649 98.6862 71.9167 98.6677 71.7685 98.6677C71.3795 98.6677 71.046 98.7418 70.7866 98.89C70.5273 99.0382 70.3791 99.3161 70.3605 99.7422H69.4342C69.4528 99.3902 69.5269 99.0938 69.6566 98.853C69.7862 98.6121 69.953 98.4269 70.1753 98.2787C70.3976 98.1305 70.6384 98.0193 70.9163 97.9637C71.1942 97.8896 71.4906 97.8711 71.8241 97.8711C72.0834 97.8711 72.3243 97.8896 72.5836 97.9267C72.843 97.9637 73.0653 98.0378 73.2691 98.149C73.4729 98.2601 73.6396 98.4269 73.7508 98.6307C73.8804 98.8344 73.936 99.0938 73.936 99.4273V102.317C73.936 102.54 73.9545 102.688 73.9731 102.799C73.9916 102.892 74.0842 102.947 74.2324 102.947C74.3065 102.947 74.3992 102.929 74.5103 102.892V103.577Z" fill="black"/>
<path d="M75.3428 97.9627V103.595H76.2691V101.094C76.2691 100.723 76.3061 100.408 76.3802 100.13C76.4543 99.8524 76.5655 99.6115 76.7322 99.4077C76.8989 99.204 77.1027 99.0558 77.3621 98.9631C77.6214 98.8705 77.9364 98.8149 78.3069 98.8149V97.8331C77.8067 97.8145 77.3991 97.9257 77.0657 98.1295C76.7322 98.3518 76.4543 98.6852 76.232 99.1484H76.2135V97.9627H75.3428Z" fill="black"/>
<path d="M79.0488 95.8135V103.594H79.9751V101.464L80.8458 100.649L82.7725 103.594H83.9582L81.5498 100.019L83.7914 97.9625H82.5502L79.9751 100.426V95.8135H79.0488Z" fill="black"/>
<path d="M89.4598 101.817H88.5521C88.478 102.188 88.3112 102.465 88.0519 102.651C87.7925 102.836 87.4776 102.929 87.0885 102.929C86.7921 102.929 86.5142 102.873 86.2919 102.78C86.0696 102.688 85.8843 102.54 85.7361 102.373C85.5879 102.206 85.4768 102.002 85.4212 101.78C85.3471 101.558 85.3286 101.317 85.3286 101.076H89.5524C89.571 100.743 89.5339 100.372 89.4598 100.002C89.3857 99.631 89.2375 99.279 89.0523 98.9641C88.8485 98.6491 88.5891 98.3898 88.2556 98.1675C87.9222 97.9637 87.5146 97.8525 87.0144 97.8525C86.6254 97.8525 86.2734 97.9266 85.9585 98.0749C85.6435 98.2231 85.3471 98.4268 85.1248 98.6862C84.884 98.9456 84.6987 99.2605 84.569 99.6125C84.4393 99.9645 84.3652 100.354 84.3652 100.78C84.3838 101.206 84.4393 101.595 84.5505 101.965C84.6616 102.336 84.8284 102.632 85.0507 102.91C85.273 103.169 85.5509 103.373 85.8843 103.521C86.2178 103.67 86.6069 103.744 87.0515 103.744C87.6813 103.744 88.2186 103.577 88.6447 103.262C89.0523 102.91 89.3301 102.447 89.4598 101.817ZM88.5521 100.242H85.31C85.3286 100.02 85.3656 99.8163 85.4583 99.631C85.5324 99.4458 85.6435 99.2605 85.7917 99.1308C85.9214 98.9826 86.0881 98.8715 86.2919 98.7788C86.4772 98.6862 86.6995 98.6491 86.9403 98.6491C87.1811 98.6491 87.3849 98.6862 87.5702 98.7788C87.7555 98.8715 87.9222 98.9826 88.0704 99.1123C88.2186 99.2605 88.3298 99.4272 88.4039 99.6125C88.4965 99.8163 88.5521 100.02 88.5521 100.242Z" fill="black"/>
<path d="M91.7763 97.9632V96.2773H90.8501V97.9632H89.8867V98.7783H90.8501V102.354C90.8501 102.613 90.8686 102.817 90.9242 102.984C90.9797 103.15 91.0538 103.262 91.165 103.354C91.2762 103.447 91.4058 103.502 91.5726 103.539C91.7393 103.576 91.9431 103.595 92.1839 103.595H92.8879V102.78H92.4618C92.3136 102.78 92.2024 102.78 92.1098 102.761C92.0172 102.743 91.9431 102.724 91.906 102.687C91.8504 102.65 91.8134 102.595 91.7949 102.539C91.7763 102.465 91.7763 102.391 91.7763 102.28V98.7783H92.9064V97.9632H91.7763Z" fill="black"/>
<path d="M93.9805 103.594H94.9068V97.9625H93.9805V103.594ZM93.9805 96.9435H94.9068V95.8135H93.9805V96.9435Z" fill="black"/>
<path d="M96.3525 97.9637V103.596H97.2788V100.409C97.2788 100.15 97.3159 99.9274 97.39 99.7051C97.4641 99.4828 97.5567 99.2975 97.7049 99.1493C97.8346 98.9826 98.0199 98.8714 98.2236 98.7788C98.4274 98.6862 98.6683 98.6491 98.9647 98.6491C99.3167 98.6491 99.5946 98.7417 99.7983 98.9455C100.002 99.1493 100.095 99.4272 100.095 99.7792V103.596H101.021V99.8904C101.021 99.5939 100.984 99.3161 100.928 99.0567C100.873 98.7973 100.762 98.5935 100.613 98.4083C100.465 98.223 100.261 98.0934 100.021 97.9822C99.7798 97.8896 99.4649 97.834 99.0944 97.834C98.2607 97.834 97.6493 98.1674 97.2603 98.8529H97.2418V97.9637H96.3525Z" fill="black"/>
<path d="M104.671 102.854C104.374 102.854 104.115 102.799 103.911 102.669C103.707 102.54 103.541 102.373 103.43 102.169C103.3 101.965 103.226 101.724 103.17 101.484C103.115 101.224 103.096 100.983 103.096 100.724C103.096 100.446 103.133 100.205 103.189 99.9459C103.244 99.7051 103.355 99.4828 103.485 99.2975C103.615 99.1123 103.8 98.9641 104.004 98.8529C104.208 98.7417 104.467 98.6862 104.763 98.6862C105.06 98.6862 105.301 98.7417 105.504 98.8529C105.708 98.9641 105.875 99.1308 106.005 99.316C106.134 99.5013 106.227 99.7236 106.282 99.9644C106.338 100.205 106.375 100.446 106.375 100.687C106.375 100.946 106.338 101.206 106.282 101.465C106.227 101.724 106.116 101.965 105.986 102.169C105.856 102.373 105.69 102.54 105.467 102.669C105.245 102.799 104.967 102.854 104.671 102.854ZM107.264 103.114V97.9637H106.394V98.7788H106.375C106.208 98.4639 105.968 98.2416 105.671 98.0748C105.375 97.9266 105.041 97.834 104.689 97.834C104.208 97.834 103.8 97.9266 103.467 98.1119C103.133 98.2971 102.855 98.538 102.651 98.8159C102.448 99.0937 102.299 99.4272 102.207 99.7792C102.114 100.131 102.077 100.483 102.077 100.817C102.077 101.206 102.133 101.558 102.244 101.91C102.355 102.262 102.503 102.558 102.726 102.817C102.929 103.077 103.189 103.281 103.504 103.429C103.819 103.577 104.189 103.651 104.597 103.651C104.967 103.651 105.301 103.577 105.634 103.41C105.949 103.244 106.19 102.984 106.357 102.651H106.375V103.021C106.375 103.336 106.338 103.614 106.282 103.873C106.227 104.133 106.116 104.355 105.986 104.54C105.856 104.726 105.671 104.874 105.467 104.985C105.264 105.096 105.004 105.152 104.689 105.152C104.541 105.152 104.374 105.133 104.208 105.096C104.041 105.059 103.893 105.003 103.744 104.929C103.596 104.855 103.485 104.763 103.392 104.651C103.3 104.54 103.244 104.392 103.226 104.225H102.299C102.318 104.522 102.392 104.781 102.54 105.003C102.688 105.207 102.874 105.392 103.096 105.522C103.318 105.652 103.559 105.744 103.837 105.8C104.115 105.856 104.374 105.893 104.634 105.893C105.541 105.893 106.19 105.67 106.616 105.207C107.061 104.726 107.264 104.04 107.264 103.114Z" fill="black"/>
<path d="M112.878 102.724V100.037H115.231C115.453 100.037 115.657 100.056 115.861 100.093C116.065 100.13 116.25 100.204 116.398 100.297C116.546 100.389 116.676 100.519 116.769 100.686C116.861 100.852 116.917 101.056 116.917 101.316C116.917 101.76 116.787 102.094 116.528 102.335C116.268 102.575 115.916 102.705 115.453 102.705H112.878V102.724ZM111.841 95.8135V103.594H115.602C115.991 103.594 116.324 103.539 116.62 103.409C116.917 103.279 117.158 103.113 117.361 102.909C117.565 102.705 117.713 102.464 117.806 102.186C117.899 101.908 117.954 101.649 117.954 101.353C117.954 100.871 117.825 100.463 117.565 100.13C117.306 99.7965 116.935 99.5742 116.472 99.4816V99.4631C116.843 99.3148 117.121 99.0925 117.324 98.7961C117.528 98.4997 117.621 98.1292 117.621 97.7216C117.621 97.3326 117.528 96.9991 117.361 96.7212C117.176 96.4433 116.972 96.2396 116.713 96.0914C116.602 96.0173 116.454 95.9617 116.287 95.9246C116.12 95.8876 115.954 95.8691 115.75 95.8505C115.564 95.832 115.379 95.8135 115.175 95.8135C114.99 95.8135 114.805 95.8135 114.638 95.8135H111.841ZM112.878 99.1666V96.7027H114.953C115.175 96.7027 115.398 96.7212 115.583 96.7398C115.787 96.7583 115.954 96.8139 116.12 96.9065C116.268 96.9991 116.398 97.1103 116.472 97.277C116.565 97.4437 116.602 97.6475 116.602 97.9254C116.602 98.333 116.472 98.6479 116.213 98.8517C115.954 99.0555 115.527 99.1666 114.953 99.1666H112.878Z" fill="black"/>
<path d="M120.122 95.8135H119.195V103.594H120.122V95.8135Z" fill="black"/>
<path d="M121.251 100.781C121.251 101.188 121.307 101.577 121.418 101.929C121.529 102.281 121.714 102.596 121.936 102.855C122.177 103.115 122.455 103.319 122.789 103.485C123.122 103.633 123.53 103.708 123.974 103.708C124.419 103.708 124.826 103.633 125.16 103.485C125.493 103.337 125.79 103.133 126.012 102.855C126.253 102.596 126.42 102.281 126.531 101.929C126.642 101.577 126.698 101.188 126.698 100.781C126.698 100.373 126.642 99.9839 126.531 99.6134C126.42 99.2614 126.234 98.9465 126.012 98.6686C125.771 98.4092 125.493 98.1869 125.16 98.0387C124.826 97.8905 124.437 97.8164 123.974 97.8164C123.53 97.8164 123.141 97.8905 122.789 98.0387C122.455 98.1869 122.159 98.4092 121.936 98.6686C121.696 98.9279 121.529 99.2429 121.418 99.6134C121.325 99.9839 121.251 100.373 121.251 100.781ZM122.233 100.781C122.233 100.447 122.27 100.132 122.363 99.8728C122.455 99.6134 122.585 99.3911 122.733 99.2058C122.9 99.0206 123.085 98.8909 123.289 98.7983C123.511 98.7056 123.733 98.6501 123.974 98.6501C124.215 98.6501 124.437 98.7056 124.66 98.7983C124.882 98.8909 125.067 99.0391 125.215 99.2058C125.382 99.3911 125.493 99.6134 125.586 99.8728C125.679 100.132 125.716 100.447 125.716 100.781C125.716 101.114 125.679 101.429 125.586 101.688C125.493 101.948 125.364 102.17 125.215 102.355C125.049 102.54 124.864 102.67 124.66 102.763C124.437 102.855 124.215 102.911 123.974 102.911C123.733 102.911 123.511 102.855 123.289 102.763C123.067 102.67 122.881 102.54 122.733 102.355C122.566 102.17 122.455 101.948 122.363 101.688C122.27 101.429 122.233 101.133 122.233 100.781Z" fill="black"/>
<path d="M130.088 102.854C129.791 102.854 129.532 102.799 129.328 102.669C129.124 102.54 128.958 102.373 128.847 102.169C128.717 101.965 128.643 101.724 128.587 101.484C128.532 101.224 128.513 100.983 128.513 100.724C128.513 100.446 128.55 100.205 128.606 99.9459C128.661 99.7051 128.772 99.4828 128.902 99.2975C129.032 99.1123 129.217 98.9641 129.421 98.8529C129.625 98.7417 129.884 98.6862 130.18 98.6862C130.477 98.6862 130.718 98.7417 130.921 98.8529C131.125 98.9641 131.292 99.1308 131.422 99.316C131.551 99.5013 131.644 99.7236 131.699 99.9644C131.755 100.205 131.792 100.446 131.792 100.687C131.792 100.946 131.755 101.206 131.699 101.465C131.644 101.724 131.533 101.965 131.403 102.169C131.273 102.373 131.107 102.54 130.884 102.669C130.644 102.78 130.384 102.854 130.088 102.854ZM132.681 103.114V97.9637H131.811V98.7788H131.792C131.625 98.4639 131.385 98.2416 131.088 98.0748C130.792 97.9081 130.458 97.834 130.106 97.834C129.625 97.834 129.217 97.9266 128.884 98.1119C128.55 98.2971 128.272 98.538 128.068 98.8159C127.865 99.0937 127.716 99.4272 127.624 99.7792C127.531 100.131 127.494 100.483 127.494 100.817C127.494 101.206 127.55 101.558 127.661 101.91C127.772 102.262 127.92 102.558 128.143 102.817C128.346 103.077 128.606 103.281 128.921 103.429C129.236 103.577 129.606 103.651 130.014 103.651C130.384 103.651 130.718 103.577 131.051 103.41C131.366 103.244 131.607 102.984 131.774 102.651H131.792V103.021C131.792 103.336 131.755 103.614 131.699 103.873C131.644 104.133 131.533 104.355 131.403 104.54C131.273 104.726 131.088 104.874 130.884 104.985C130.681 105.096 130.421 105.152 130.106 105.152C129.958 105.152 129.791 105.133 129.625 105.096C129.458 105.059 129.31 105.003 129.161 104.929C129.013 104.855 128.902 104.763 128.809 104.651C128.717 104.54 128.661 104.392 128.643 104.225H127.716C127.735 104.522 127.809 104.781 127.957 105.003C128.105 105.207 128.291 105.392 128.513 105.522C128.735 105.652 128.976 105.744 129.254 105.8C129.532 105.856 129.791 105.893 130.051 105.893C130.958 105.893 131.607 105.67 132.033 105.207C132.459 104.726 132.681 104.04 132.681 103.114Z" fill="black"/>
<path d="M0.277344 100.26C9.35497 103.298 18.692 103.965 28.5662 100.26C36.8657 97.1289 47.6107 97.3697 53.9465 100.26" stroke="#231F20" stroke-width="0.75" stroke-miterlimit="10" stroke-linecap="round" stroke-linejoin="round"/>
</g>
<defs>
<clipPath id="clip0">
<rect width="142" height="105.875" fill="white"/>
</clipPath>
</defs>
</svg>
