<svg xmlns="http://www.w3.org/2000/svg" xmlns:xlink="http://www.w3.org/1999/xlink" width="314" height="500" viewBox="0 0 314 500"><defs><path id="a" d="M0 0h314v500H0z"/></defs><g fill="none" fill-rule="evenodd"><mask id="b" fill="#fff"><use xlink:href="#a"/></mask><use fill="#000" fill-opacity="0" xlink:href="#a"/><g mask="url(#b)"><path fill="#FFBD00" d="M126.7-81.6c16.6-19.9 41.4-26.9 73.8-21.8l50.1 21.2L287-8.4l-7.1 51.1-20.7 43.5-30.9 23.3c-18.7 16.7-81.6 20.3-101.2 5.6C88.2 98 80.9 70.2 71 14.5c7.5-26.1 4.7-66.1 55.7-96.1z"/><path fill="#5F8817" d="M234.1 439l79 13-4 36.4v60.3l-54.9 12.2-50.2-34.1v-36.4z"/><path fill="#F3AFB9" fill-rule="nonzero" d="M-157 484.05l34.23 37.61 275.8-251.05L118.8 233z"/></g></g></svg>
