<svg width="173" height="118" viewBox="0 0 173 118" fill="none" xmlns="http://www.w3.org/2000/svg">
<g clip-path="url(#clip0)">
<path d="M23.1262 2.06187H20.0231L18.765 9.21593H16.4796L17.7376 2.06187H11.6152L11.9717 0.0839844H23.4827L23.1262 2.06187Z" fill="#231F20"/>
<path d="M32.1634 0.0839844L30.5699 9.21593H28.2845L28.8716 5.91244H26.3974L25.8313 9.21593H23.5459L25.1604 0.0839844H27.4248L26.7539 3.93455H29.207L29.8989 0.0839844H32.1634Z" fill="#231F20"/>
<path d="M39.3335 9.21593H32.9805L34.5949 0.0839844H40.948L40.5915 2.06187H36.5239L36.2304 3.78726H39.5851L39.2287 5.76515H35.8739L35.6223 7.23805H39.69L39.3335 9.21593Z" fill="#231F20"/>
<path d="M47.491 6.62803C47.491 7.21719 47.9103 7.51177 48.749 7.51177C49.5877 7.51177 50.007 7.25927 50.007 6.73324C50.007 6.4597 49.8602 6.22825 49.5877 6.03887C49.3151 5.8495 48.9587 5.72325 48.5393 5.597C48.1409 5.47076 47.7216 5.34451 47.3232 5.17618C46.9248 5.02889 46.5684 4.77639 46.2749 4.43973C45.9813 4.10307 45.8555 3.68224 45.8555 3.19829C45.8346 1.05207 47.1974 0 49.9232 0C50.9086 0 51.6634 0.189372 52.1876 0.568117C52.7118 0.946862 52.9424 1.4729 52.9424 2.12518C52.9424 2.37768 52.9215 2.60913 52.8376 2.81954C52.7747 3.051 52.7118 3.19829 52.6489 3.3035L52.544 3.45078H50.3215C50.5102 3.26141 50.5941 3.00892 50.5941 2.71434C50.5941 2.16726 50.2377 1.89372 49.5248 1.89372C48.6232 1.89372 48.1829 2.1883 48.1829 2.75642C48.1829 3.051 48.3296 3.28245 48.6022 3.45078C48.8958 3.61912 49.2312 3.74536 49.6506 3.85057C50.049 3.95578 50.4683 4.06098 50.8876 4.20827C51.307 4.35556 51.6425 4.58702 51.936 4.92368C52.2295 5.26034 52.3763 5.68117 52.3763 6.22825C52.3763 7.30136 52.0618 8.10093 51.4118 8.62696C50.7618 9.153 49.7764 9.40549 48.4555 9.40549C47.1345 9.40549 46.212 9.17404 45.7297 8.69009C45.3733 8.33238 45.1846 7.84843 45.1846 7.21719C45.1846 6.98573 45.2055 6.7122 45.2684 6.43866L45.3104 6.22825H47.5748L47.5539 6.37554C47.5119 6.48074 47.491 6.54387 47.491 6.62803Z" fill="#231F20"/>
<path d="M57.0935 9.40549C55.8984 9.40549 55.0597 9.153 54.5985 8.62696C54.2839 8.24822 54.1162 7.74322 54.1162 7.0699C54.1162 6.77532 54.1372 6.48074 54.2001 6.14408L54.7243 3.21933C55.1017 1.07311 56.4855 0 58.8338 0C59.8193 0 60.5531 0.210414 61.0563 0.631241C61.5595 1.05207 61.8111 1.62019 61.8111 2.35663C61.8111 2.6933 61.7692 3.02996 61.6644 3.36662C61.5595 3.70328 61.4757 3.95578 61.3708 4.10307L61.2241 4.35556H58.9806C59.2532 4.03994 59.3999 3.57703 59.3999 2.98787C59.3999 2.67225 59.3161 2.41976 59.1693 2.25143C59.0016 2.06205 58.7709 1.97789 58.4564 1.97789C57.5968 1.97789 57.0935 2.46184 56.9468 3.4087L56.5065 5.97575C56.4645 6.18616 56.4436 6.41762 56.4436 6.62803C56.4436 7.19615 56.779 7.46969 57.45 7.46969C58.2467 7.46969 58.729 7.02782 58.8967 6.12304H61.1821L61.1192 6.48074C60.7628 8.41655 59.4419 9.40549 57.0935 9.40549Z" fill="#231F20"/>
<path d="M66.5918 0.0839844L64.9983 9.21593H62.7129L64.3274 0.0839844H66.5918Z" fill="#231F20"/>
<path d="M73.7622 9.21593H67.4092L69.0237 0.0839844H75.3557L75.0203 2.06187H70.9317L70.6591 3.78726H74.0138L73.6574 5.76515H70.3026L70.051 7.23805H74.1187L73.7622 9.21593Z" fill="#231F20"/>
<path d="M84.4564 0.0839844L82.8629 9.21593H80.5774L78.9839 4.22913L78.1243 9.21593H75.8389L77.4533 0.0839844H79.8017L81.3742 4.75517L82.1919 0.0839844H84.4564Z" fill="#231F20"/>
<path d="M88.4812 9.40549C87.2861 9.40549 86.4474 9.153 85.9862 8.62696C85.6716 8.24822 85.5039 7.74322 85.5039 7.0699C85.5039 6.77532 85.5249 6.48074 85.5878 6.14408L86.112 3.21933C86.4894 1.07311 87.8522 0 90.2215 0C91.207 0 91.9408 0.210414 92.444 0.631241C92.9473 1.05207 93.1989 1.62019 93.1989 2.35663C93.1989 2.6933 93.1569 3.02996 93.0521 3.36662C92.9473 3.70328 92.8634 3.95578 92.7586 4.10307L92.6118 4.35556H90.3683C90.6409 4.03994 90.7876 3.57703 90.7876 2.98787C90.7876 2.67225 90.7038 2.41976 90.557 2.25143C90.3893 2.06205 90.1586 1.97789 89.8441 1.97789C88.9845 1.97789 88.4812 2.46184 88.3345 3.4087L87.8942 5.97575C87.8522 6.18616 87.8313 6.41762 87.8313 6.62803C87.8313 7.19615 88.1667 7.46969 88.8377 7.46969C89.6344 7.46969 90.1167 7.02782 90.2844 6.12304H92.5489L92.486 6.48074C92.1505 8.41655 90.8086 9.40549 88.4812 9.40549Z" fill="#231F20"/>
<path d="M100.432 9.21593H94.0996L95.6931 0.0839844H102.046L101.69 2.06187H97.6221L97.3286 3.78726H100.683L100.327 5.76515H96.9721L96.7205 7.23805H100.788L100.432 9.21593Z" fill="#231F20"/>
<path d="M109.804 7.4276C110.224 7.4276 110.559 7.3224 110.811 7.09094C111.062 6.88053 111.251 6.4597 111.335 5.87054L111.754 3.42974C111.775 3.26141 111.796 3.11412 111.796 2.96683C111.796 2.27247 111.461 1.93581 110.769 1.93581C109.909 1.95685 109.385 2.4408 109.217 3.42974L108.798 5.87054C108.756 6.08096 108.756 6.29137 108.756 6.52282C108.735 7.13302 109.091 7.4276 109.804 7.4276ZM111.104 0C113.138 0 114.145 0.841655 114.145 2.50392C114.145 2.77746 114.124 3.09308 114.061 3.4087L113.62 5.95471C113.411 7.13302 112.97 7.99572 112.299 8.56384C111.629 9.13196 110.685 9.40549 109.448 9.40549C108.232 9.40549 107.372 9.13196 106.89 8.56384C106.554 8.18509 106.387 7.63802 106.387 6.94365C106.387 6.64907 106.429 6.31241 106.492 5.93367L106.932 3.38766C107.351 1.13623 108.735 0 111.104 0Z" fill="#231F20"/>
<path d="M121.442 5.87036H118.087L117.5 9.21593H115.215L116.808 0.0839844H126.013L125.656 2.06187H118.737L118.423 3.89247H121.778L121.442 5.87036Z" fill="#231F20"/>
<path d="M36.1476 49.0057C35.4347 50.668 34.4073 52.0567 33.0445 53.1719C30.2139 55.4654 25.8527 56.6227 19.961 56.6227C14.0692 56.6227 10.0435 55.5706 7.88388 53.4875C6.29037 51.9094 5.47266 49.7421 5.47266 46.9857C5.47266 45.9337 5.57749 44.7974 5.80813 43.556L5.97587 42.6512H16.0401L15.9353 43.3245C15.8514 43.7033 15.8304 44.0399 15.8304 44.3345C15.8304 46.9226 17.6755 48.2061 21.3867 48.2061C25.0979 48.2061 26.943 47.0488 26.943 44.7343C26.943 43.4929 26.314 42.4829 25.035 41.7043C23.777 40.9258 22.2254 40.2735 20.4222 39.7475C18.6191 39.2215 16.8159 38.6113 14.9917 37.9169C13.1886 37.2225 11.637 36.1494 10.379 34.6555C9.12094 33.1826 8.47096 31.3309 8.47096 29.1216C8.47096 19.7371 14.4885 15.0449 26.5237 15.0449C30.9268 15.0449 34.2606 15.8866 36.504 17.5488C38.6427 19.1269 39.7749 21.2942 39.8798 24.0296C39.083 25.7339 38.4959 27.6697 38.1185 29.858L38.0346 30.3841H28.264C29.0817 29.5214 29.501 28.4483 29.501 27.1227C29.501 24.6819 27.9075 23.4825 24.7415 23.4825C20.7577 23.4825 18.7658 24.745 18.7658 27.291C18.7658 28.5535 19.3948 29.5635 20.6738 30.321C21.9319 31.0784 23.4834 31.6676 25.2866 32.0884C27.0898 32.5093 28.9139 33.0563 30.7381 33.6876C32.5622 34.3188 34.1138 35.3709 35.3718 36.8648C35.875 37.454 36.2734 38.0852 36.5669 38.8217L36.1686 41.0941C35.875 42.6933 35.7283 44.1872 35.7283 45.5339C35.7492 46.7753 35.875 47.9536 36.1476 49.0057Z" fill="#231F20"/>
<path d="M52.3128 47.9111C54.1789 47.9111 55.6676 47.4272 56.7788 46.4593C57.8901 45.4913 58.6868 43.6818 59.1271 41.0727L61.0352 30.2995C61.14 29.542 61.2029 28.8687 61.2029 28.2795C61.2029 25.2495 59.6723 23.7346 56.6111 23.7346C52.7741 23.8187 50.4677 26.007 49.7339 30.2995L47.8258 41.0727C47.6791 41.9985 47.5952 42.9874 47.5952 43.9974C47.6162 46.6065 49.1887 47.9111 52.3128 47.9111ZM67.0947 48.0374C66.1302 49.9942 64.8931 51.5933 63.3835 52.8558C60.4061 55.3598 56.2127 56.6222 50.8032 56.6222C45.3936 56.6222 41.6405 55.3598 39.5019 52.8558C38.0551 51.1304 37.3213 48.7528 37.3213 45.7228C37.3213 44.3762 37.4681 42.9033 37.7616 41.2831L39.7115 30.068C41.4728 20.0313 47.5742 15.0234 58.0578 15.0234C66.0253 15.0234 70.4494 17.9271 71.372 23.7135C70.5962 25.3127 70.0301 27.1433 69.6736 29.1843L67.3882 42.0826C67.1366 43.5345 66.9898 44.9022 66.9898 46.1857C67.0108 46.838 67.0318 47.4482 67.0947 48.0374Z" fill="#231F20"/>
<path d="M81.9608 56.6227C76.6351 56.6227 72.9449 55.4654 70.8901 53.1508C69.4644 51.5096 68.7725 49.1951 68.7725 46.2493C68.7725 44.9868 68.8983 43.6191 69.1708 42.1462L71.4563 29.2478C73.1336 19.7792 79.1931 15.0449 89.6348 15.0449C93.954 15.0449 97.2459 15.9707 99.4684 17.8224C101.712 19.674 102.823 22.199 102.823 25.4183C102.823 26.9123 102.613 28.4062 102.173 29.8791C101.754 31.352 101.334 32.4461 100.915 33.1615L100.307 34.2767H90.4106C91.6476 32.8459 92.2557 30.8259 92.2557 28.2168C92.2557 26.8281 91.8992 25.7339 91.1864 24.9344C90.4735 24.1348 89.4251 23.735 88.0623 23.735C84.2882 23.735 82.0656 25.8391 81.3528 30.0264L79.4028 41.3677C79.2141 42.3356 79.1302 43.3035 79.1302 44.2293C79.1302 46.6911 80.5979 47.9326 83.5543 47.9326C87.0978 47.9326 89.2155 45.9337 89.9283 41.9358H99.9926L99.72 43.556C98.1894 52.2671 92.2767 56.6227 81.9608 56.6227Z" fill="#231F20"/>
<path d="M117.501 15.5703L110.477 55.8224H100.35L107.437 15.5703H117.501Z" fill="#231F20"/>
<path d="M136.161 25.2486H132.639L128.215 39.4936H135.532L136.161 25.2486ZM145.513 46.269L143.835 55.8428H134.945L135.281 47.0265H125.95L123.204 55.8428H112.531L126.894 15.4434H145.345L145.513 46.269Z" fill="#231F20"/>
<path d="M171.428 55.8221H145.932L153.06 15.2754H163.125L157.568 47.0689H173L171.428 55.8221Z" fill="#231F20"/>
<path d="M17.6124 60.4512L23.609 79.8092L36.4619 60.4512H44.6391L37.5312 100.851H29.8153L33.841 78.0628L25.2235 91.6555H17.885L14.0899 78.0628L10.0642 100.851H0L7.10786 60.4512H17.6124Z" fill="#231F20"/>
<path d="M74.6228 60.4722H72.9035L71.3729 69.2044H55.0605L53.7815 76.7793H68.6472L67.0747 85.5325H52.209L51.0977 92.0974H67.3472L65.7957 100.851H39.4609L46.5688 60.4512H74.6228V60.4722Z" fill="#231F20"/>
<path d="M87.034 69.2044H83.4067L79.4439 92.0974H84.7486C86.5098 92.0974 87.8727 91.6134 88.8581 90.6666C89.8436 89.7197 90.5355 88.1416 90.8919 85.9744L92.5064 76.7793C92.6532 75.9587 92.737 75.2012 92.737 74.5279C92.737 70.9719 90.829 69.2044 87.034 69.2044ZM84.0566 100.851H67.7861L74.894 60.4512H90.5565C95.4418 60.4512 98.9224 61.6926 101.019 64.1545C102.319 65.7326 103.053 67.6684 103.263 69.9198L99.4675 91.4872C98.503 93.6545 97.1402 95.5061 95.3789 97.0421C92.4435 99.5881 88.6904 100.851 84.0566 100.851Z" fill="#231F20"/>
<path d="M111.546 92.413L108.548 100.851H99.9512L107.059 60.4512H117.123L111.546 92.413Z" fill="#231F20"/>
<path d="M130.668 70.2775L126.243 84.5225H133.561L134.19 70.2775H130.668ZM132.953 100.851L133.288 92.0343H123.958L121.211 100.851H110.539L124.902 60.4512H143.353L143.583 100.851H132.953Z" fill="#231F20"/>
</g>
<defs>
<clipPath id="clip0">
<rect width="173" height="118" fill="white"/>
</clipPath>
</defs>
</svg>
